<svg id="visual" viewBox="0 0 1920 1080" width="1920" height="1080" xmlns="http://www.w3.org/2000/svg" xmlns:xlink="http://www.w3.org/1999/xlink" version="1.1"><rect x="0" y="0" width="1920" height="1080" fill="#001220"></rect><defs><linearGradient id="grad1_0" x1="43.8%" y1="100%" x2="100%" y2="0%"><stop offset="14.444444444444446%" stop-color="#001220" stop-opacity="1"></stop><stop offset="85.55555555555554%" stop-color="#001220" stop-opacity="1"></stop></linearGradient></defs><defs><linearGradient id="grad2_0" x1="0%" y1="100%" x2="56.3%" y2="0%"><stop offset="14.444444444444446%" stop-color="#001220" stop-opacity="1"></stop><stop offset="85.55555555555554%" stop-color="#001220" stop-opacity="1"></stop></linearGradient></defs><g transform="translate(1920, 1080)"><path d="M-810 0C-751.8 -82.2 -693.6 -164.4 -667 -276.3C-640.4 -388.2 -645.4 -529.8 -572.8 -572.8C-500.1 -615.7 -349.9 -559.9 -241.5 -583C-133.1 -606.1 -66.5 -708 0 -810L0 0Z" fill="#FBAE3C"></path></g><g transform="translate(0, 0)"><path d="M810 0C793.2 99.9 776.4 199.9 743.7 308.1C711 416.3 662.5 532.7 572.8 572.8C483 612.8 352.2 576.5 249.9 603.3C147.6 630.1 73.8 720.1 0 810L0 0Z" fill="#FBAE3C"></path></g></svg>
